<svg xmlns="http://www.w3.org/2000/svg" xmlns:xlink="http://www.w3.org/1999/xlink" viewBox="0 0 107.15 36.28"><defs><style>.cls-1{fill:none;}.cls-2{isolation:isolate;}.cls-3{fill:#251f20;}.cls-4{fill:url(#linear-gradient);}.cls-5{opacity:0.65;fill:url(#linear-gradient-2);}.cls-5,.cls-6{mix-blend-mode:multiply;}.cls-6{opacity:0.5;}.cls-7{clip-path:url(#clip-path);}.cls-8{fill:#010000;}.cls-9{fill:#020100;}.cls-10{fill:#040100;}.cls-11{fill:#050200;}.cls-12{fill:#060200;}.cls-13{fill:#070200;}.cls-14{fill:#080300;}.cls-15{fill:#090300;}.cls-16{fill:#0b0400;}.cls-17{fill:#0c0400;}.cls-18{fill:#0d0500;}.cls-19{fill:#0e0500;}.cls-20{fill:#0f0500;}.cls-21{fill:#100600;}.cls-22{fill:#120600;}.cls-23{fill:#130700;}.cls-24{fill:#140700;}.cls-25{fill:#150700;}.cls-26{fill:#160800;}.cls-27{fill:#170800;}.cls-28{fill:#190900;}.cls-29{fill:#1a0900;}.cls-30{fill:#1b0a00;}.cls-31{fill:#1c0a00;}.cls-32{fill:#1d0a00;}.cls-33{fill:#1e0b00;}.cls-34{fill:#200b00;}.cls-35{fill:#210c00;}.cls-36{fill:#220c00;}.cls-37{fill:#230c00;}.cls-38{fill:#240d00;}.cls-39{fill:#250d00;}.cls-40{fill:#270e00;}.cls-41{fill:#280e00;}.cls-42{fill:#290f00;}.cls-43{fill:#2a0f00;}.cls-44{fill:#2b0f00;}.cls-45{fill:#2c1000;}.cls-46{fill:#2e1000;}.cls-47{fill:#2f1100;}.cls-48{fill:#301100;}.cls-49{fill:#311100;}.cls-50{fill:#321200;}.cls-51{fill:#331200;}.cls-52{fill:#351300;}.cls-53{fill:#361300;}.cls-54{fill:#371400;}.cls-55{fill:#381400;}.cls-56{fill:#391400;}.cls-57{fill:#3a1500;}.cls-58{fill:#3c1500;}.cls-59{fill:#3d1600;}.cls-60{fill:#3e1600;}.cls-61{fill:#3f1600;}.cls-62{fill:#401700;}.cls-63{fill:#411700;}.cls-64{fill:#431800;}.cls-65{fill:#441800;}.cls-66{fill:#451900;}.cls-67{fill:#461900;}.cls-68{fill:#471900;}.cls-69{fill:#481a00;}.cls-70{fill:#4a1a00;}.cls-71{fill:#4b1b00;}.cls-72{fill:#4c1b00;}.cls-73{fill:#4d1b00;}.cls-74{fill:#4e1c00;}.cls-75{fill:#4f1c00;}.cls-76{fill:#511d00;}.cls-77{fill:#521d00;}.cls-78{fill:#531e00;}.cls-79{fill:#541e00;}.cls-80{fill:#551e00;}.cls-81{fill:#561f00;}.cls-82{fill:#581f00;}.cls-83{fill:#592000;}.cls-84{fill:#5a2000;}.cls-85{fill:#5b2000;}.cls-86{fill:#5c2100;}.cls-87{fill:#5d2100;}.cls-88{fill:#5f2200;}.cls-89{fill:#602200;}.cls-90{fill:#612300;}.cls-91{fill:#622300;}.cls-92{fill:#632300;}.cls-93{fill:#642400;}.cls-94{fill:#662400;}.cls-95{fill:#672500;}.cls-96{fill:#682500;}.cls-97{fill:#692500;}.cls-98{fill:#6a2600;}.cls-99{fill:#6b2600;}.cls-100{fill:#6d2700;}.cls-101{fill:#6e2700;}.cls-102{fill:#6f2800;}.cls-103{fill:#702800;}.cls-104{fill:#712800;}.cls-105{fill:#722900;}.cls-106{fill:#742900;}.cls-107{fill:#752a00;}.cls-108{fill:#762a00;}.cls-109{fill:#772a00;}.cls-110{fill:#782b00;}.cls-111{fill:#792b00;}.cls-112{fill:#7b2c00;}.cls-113{fill:#7c2c00;}.cls-114{fill:#7d2d00;}.cls-115{fill:#7e2d00;}.cls-116{fill:#7f2d00;}.cls-117{fill:#802e00;}.cls-118{fill:#822e00;}.cls-119{fill:#832f00;}.cls-120{fill:#842f00;}.cls-121{fill:#852f00;}.cls-122{fill:#863000;}.cls-123{fill:#873000;}.cls-124{fill:#893100;}.cls-125{fill:#8a3100;}.cls-126{fill:#8b3200;}.cls-127{fill:#8c3200;}.cls-128{fill:#8d3200;}.cls-129{fill:#8e3300;}.cls-130{fill:#903300;}.cls-131{fill:#913400;}.cls-132{fill:#923400;}.cls-133{fill:#933400;}.cls-134{fill:#943500;}.cls-135{fill:#953500;}.cls-136{fill:#973600;}.cls-137{fill:#983600;}.cls-138{fill:#993700;}.cls-139{fill:#9a3700;}.cls-140{fill:#9b3700;}.cls-141{fill:#9c3800;}.cls-142{fill:#9e3800;}.cls-143{fill:#9f3900;}.cls-144{fill:#a03900;}.cls-145{fill:#a13900;}.cls-146{fill:#a23a00;}.cls-147{fill:#a33a00;}.cls-148{fill:#a53b00;}.cls-149{fill:#a63b00;}.cls-150{fill:#a73c00;}.cls-151{fill:#a83c00;}.cls-152{fill:#a93c00;}.cls-153{fill:#aa3d00;}.cls-154{fill:#ac3d00;}.cls-155{fill:#ad3e00;}.cls-156{fill:#ae3e00;}.cls-157{fill:#af3f02;opacity:0.99;}.cls-158{fill:#af4103;opacity:0.99;}.cls-159{fill:#b04205;opacity:0.98;}.cls-160{fill:#b04307;opacity:0.97;}.cls-161{fill:#b14409;opacity:0.97;}.cls-162{fill:#b1460a;opacity:0.96;}.cls-163{fill:#b2470c;opacity:0.95;}.cls-164{fill:#b2480e;opacity:0.95;}.cls-165{fill:#b34a0f;opacity:0.94;}.cls-166{fill:#b34b11;opacity:0.93;}.cls-167{fill:#b44c13;opacity:0.93;}.cls-168{fill:#b54e15;opacity:0.92;}.cls-169{fill:#b54f16;opacity:0.91;}.cls-170{fill:#b65018;opacity:0.91;}.cls-171{fill:#b6511a;opacity:0.9;}.cls-172{fill:#b7531b;opacity:0.89;}.cls-173{fill:#b7541d;opacity:0.89;}.cls-174{fill:#b8551f;opacity:0.88;}.cls-175{fill:#b85721;opacity:0.87;}.cls-176{fill:#b95822;opacity:0.87;}.cls-177{fill:#b95924;opacity:0.86;}.cls-178{fill:#ba5a26;opacity:0.85;}.cls-179{fill:#bb5c27;opacity:0.85;}.cls-180{fill:#bb5d29;opacity:0.84;}.cls-181{fill:#bc5e2b;opacity:0.83;}.cls-182{fill:#bc602c;opacity:0.83;}.cls-183{fill:#bd612e;opacity:0.82;}.cls-184{fill:#bd6230;opacity:0.81;}.cls-185{fill:#be6432;opacity:0.81;}.cls-186{fill:#be6533;opacity:0.8;}.cls-187{fill:#bf6635;opacity:0.79;}.cls-188{fill:#bf6737;opacity:0.79;}.cls-189{fill:#c06938;opacity:0.78;}.cls-190{fill:#c06a3a;opacity:0.77;}.cls-191{fill:#c16b3c;opacity:0.77;}.cls-192{fill:#c26d3e;opacity:0.76;}.cls-193{fill:#c26e3f;opacity:0.75;}.cls-194{fill:#c36f41;opacity:0.74;}.cls-195{fill:#c37143;opacity:0.74;}.cls-196{fill:#c47244;opacity:0.73;}.cls-197{fill:#c47346;opacity:0.72;}.cls-198{fill:#c57448;opacity:0.72;}.cls-199{fill:#c5764a;opacity:0.71;}.cls-200{fill:#c6774b;opacity:0.7;}.cls-201{fill:#c6784d;opacity:0.7;}.cls-202{fill:#c77a4f;opacity:0.69;}.cls-203{fill:#c87b50;opacity:0.68;}.cls-204{fill:#c87c52;opacity:0.68;}.cls-205{fill:#c97d54;opacity:0.67;}.cls-206{fill:#c97f56;opacity:0.66;}.cls-207{fill:#ca8057;opacity:0.66;}.cls-208{fill:#ca8159;opacity:0.65;}.cls-209{fill:#cb835b;opacity:0.64;}.cls-210{fill:#cb845c;opacity:0.64;}.cls-211{fill:#cc855e;opacity:0.63;}.cls-212{fill:#cc8760;opacity:0.62;}.cls-213{fill:#cd8862;opacity:0.62;}.cls-214{fill:#ce8963;opacity:0.61;}.cls-215{fill:#ce8a65;opacity:0.6;}.cls-216{fill:#cf8c67;opacity:0.6;}.cls-217{fill:#cf8d68;opacity:0.59;}.cls-218{fill:#d08e6a;opacity:0.58;}.cls-219{fill:#d0906c;opacity:0.58;}.cls-220{fill:#d1916e;opacity:0.57;}.cls-221{fill:#d1926f;opacity:0.56;}.cls-222{fill:#d29371;opacity:0.56;}.cls-223{fill:#d29573;opacity:0.55;}.cls-224{fill:#d39674;opacity:0.54;}.cls-225{fill:#d49776;opacity:0.54;}.cls-226{fill:#d49978;opacity:0.53;}.cls-227{fill:#d59a7a;opacity:0.52;}.cls-228{fill:#d59b7b;opacity:0.52;}.cls-229{fill:#d69d7d;opacity:0.51;}.cls-230{fill:#d69e7f;opacity:0.5;}.cls-231{fill:#d79f80;opacity:0.5;}.cls-232{fill:#d7a082;opacity:0.49;}.cls-233{fill:#d8a284;opacity:0.48;}.cls-234{fill:#d8a385;opacity:0.48;}.cls-235{fill:#d9a487;opacity:0.47;}.cls-236{fill:#d9a689;opacity:0.46;}.cls-237{fill:#daa78b;opacity:0.46;}.cls-238{fill:#dba88c;opacity:0.45;}.cls-239{fill:#dbaa8e;opacity:0.44;}.cls-240{fill:#dcab90;opacity:0.44;}.cls-241{fill:#dcac91;opacity:0.43;}.cls-242{fill:#ddad93;opacity:0.42;}.cls-243{fill:#ddaf95;opacity:0.42;}.cls-244{fill:#deb097;opacity:0.41;}.cls-245{fill:#deb198;opacity:0.4;}.cls-246{fill:#dfb39a;opacity:0.4;}.cls-247{fill:#dfb49c;opacity:0.39;}.cls-248{fill:#e0b59d;opacity:0.38;}.cls-249{fill:#e1b69f;opacity:0.38;}.cls-250{fill:#e1b8a1;opacity:0.37;}.cls-251{fill:#e2b9a3;opacity:0.36;}.cls-252{fill:#e2baa4;opacity:0.36;}.cls-253{fill:#e3bca6;opacity:0.35;}.cls-254{fill:#e3bda8;opacity:0.34;}.cls-255{fill:#e4bea9;opacity:0.34;}.cls-256{fill:#e4c0ab;opacity:0.33;}.cls-257{fill:#e5c1ad;opacity:0.32;}.cls-258{fill:#e5c2af;opacity:0.32;}.cls-259{fill:#e6c3b0;opacity:0.31;}.cls-260{fill:#e7c5b2;opacity:0.3;}.cls-261{fill:#e7c6b4;opacity:0.3;}.cls-262{fill:#e8c7b5;opacity:0.29;}.cls-263{fill:#e8c9b7;opacity:0.28;}.cls-264{fill:#e9cab9;opacity:0.28;}.cls-265{fill:#e9cbbb;opacity:0.27;}.cls-266{fill:#eaccbc;opacity:0.26;}.cls-267{fill:#eacebe;opacity:0.26;}.cls-268{fill:#ebcfc0;opacity:0.25;}.cls-269{fill:#ebd0c1;opacity:0.24;}.cls-270{fill:#ecd2c3;opacity:0.23;}.cls-271{fill:#edd3c5;opacity:0.23;}.cls-272{fill:#edd4c7;opacity:0.22;}.cls-273{fill:#eed6c8;opacity:0.21;}.cls-274{fill:#eed7ca;opacity:0.21;}.cls-275{fill:#efd8cc;opacity:0.2;}.cls-276{fill:#efd9cd;opacity:0.19;}.cls-277{fill:#f0dbcf;opacity:0.19;}.cls-278{fill:#f0dcd1;opacity:0.18;}.cls-279{fill:#f1ddd3;opacity:0.17;}.cls-280{fill:#f1dfd4;opacity:0.17;}.cls-281{fill:#f2e0d6;opacity:0.16;}.cls-282{fill:#f2e1d8;opacity:0.15;}.cls-283{fill:#f3e3d9;opacity:0.15;}.cls-284{fill:#f4e4db;opacity:0.14;}.cls-285{fill:#f4e5dd;opacity:0.13;}.cls-286{fill:#f5e6de;opacity:0.13;}.cls-287{fill:#f5e8e0;opacity:0.12;}.cls-288{fill:#f6e9e2;opacity:0.11;}.cls-289{fill:#f6eae4;opacity:0.11;}.cls-290{fill:#f7ece5;opacity:0.1;}.cls-291{fill:#f7ede7;opacity:0.09;}.cls-292{fill:#f8eee9;opacity:0.09;}.cls-293{fill:#f8efea;opacity:0.08;}.cls-294{fill:#f9f1ec;opacity:0.07;}.cls-295{fill:#faf2ee;opacity:0.07;}.cls-296{fill:#faf3f0;opacity:0.06;}.cls-297{fill:#fbf5f1;opacity:0.05;}.cls-298{fill:#fbf6f3;opacity:0.05;}.cls-299{fill:#fcf7f5;opacity:0.04;}.cls-300{fill:#fcf9f6;opacity:0.03;}.cls-301{fill:#fdfaf8;opacity:0.03;}.cls-302{fill:#fdfbfa;opacity:0.02;}.cls-303{fill:#fefcfc;opacity:0.01;}.cls-304{fill:#fefefd;opacity:0.01;}.cls-305{fill:#fff;opacity:0;}</style><linearGradient id="linear-gradient" x1="60.56" y1="15.98" x2="54.42" y2="6.36" gradientUnits="userSpaceOnUse"><stop offset="0" stop-color="#ff9800"/><stop offset="0.22" stop-color="#ff9300"/><stop offset="0.47" stop-color="#ff8600"/><stop offset="0.62" stop-color="#ff7a00"/><stop offset="0.79" stop-color="#ff6d00"/><stop offset="1" stop-color="#ff6100"/></linearGradient><linearGradient id="linear-gradient-2" x1="59.59" y1="15.85" x2="50.62" y2="-1.7" gradientUnits="userSpaceOnUse"><stop offset="0" stop-color="#ff7a00" stop-opacity="0"/><stop offset="0.19" stop-color="#fb6a00" stop-opacity="0.22"/><stop offset="0.37" stop-color="#f85c00" stop-opacity="0.41"/><stop offset="0.55" stop-color="#f55200" stop-opacity="0.55"/><stop offset="0.71" stop-color="#f34a00" stop-opacity="0.66"/><stop offset="0.86" stop-color="#f24600" stop-opacity="0.72"/><stop offset="0.98" stop-color="#f24400" stop-opacity="0.74"/></linearGradient><clipPath id="clip-path" transform="translate(0 0.14)"><path class="cls-1" d="M64.9,8.87A8.88,8.88,0,1,1,56,0,8.88,8.88,0,0,1,64.9,8.87Z"/></clipPath></defs><g class="cls-2"><g id="Layer_2" data-name="Layer 2"><g id="Layer_1-2" data-name="Layer 1"><path class="cls-3" d="M5.54.51H.74V17.27H5.52a8.68,8.68,0,0,0,6-1.94,8.37,8.37,0,0,0,3-6.43C14.54,4,10.84.51,5.54.51ZM9.36,13.1C8.33,14,7,14.43,4.89,14.43H4V3.35h.88c2.11,0,3.39.38,4.47,1.36a5.62,5.62,0,0,1,1.81,4.17A5.75,5.75,0,0,1,9.36,13.1Z" transform="translate(0 0.14)"/><rect class="cls-3" x="16.04" y="0.65" width="3.27" height="16.76"/><path class="cls-3" d="M27.3,6.94c-2-.72-2.54-1.2-2.54-2.11S25.79,3,27.2,3a3.37,3.37,0,0,1,2.63,1.35l1.71-2.24A7.3,7.3,0,0,0,26.62.24,4.92,4.92,0,0,0,21.39,5c0,2.31,1.06,3.49,4.13,4.59a12,12,0,0,1,2.25,1,2,2,0,0,1,1,1.73,2.38,2.38,0,0,1-2.53,2.36,3.87,3.87,0,0,1-3.57-2.23l-2.11,2a6.5,6.5,0,0,0,5.8,3.19c3.4,0,5.78-2.26,5.78-5.5C32.12,9.51,31,8.3,27.3,6.94Z" transform="translate(0 0.14)"/><path class="cls-3" d="M33.15,8.9A8.68,8.68,0,0,0,42,17.65a9.05,9.05,0,0,0,4.1-1V12.82a5.23,5.23,0,0,1-4,1.84,5.47,5.47,0,0,1-5.62-5.78A5.57,5.57,0,0,1,42,3.12,5.48,5.48,0,0,1,46.09,5V1.16a8.39,8.39,0,0,0-4-1A8.81,8.81,0,0,0,33.15,8.9Z" transform="translate(0 0.14)"/><polygon class="cls-3" points="72 11.9 67.53 0.65 63.97 0.65 71.08 17.84 72.83 17.84 80.07 0.65 76.53 0.65 72 11.9"/><polygon class="cls-3" points="81.55 17.41 90.82 17.41 90.82 14.57 84.82 14.57 84.82 10.05 90.6 10.05 90.6 7.21 84.82 7.21 84.82 3.49 90.82 3.49 90.82 0.65 81.55 0.65 81.55 17.41"/><path class="cls-3" d="M103.76,5.46c0-3.14-2.16-4.95-5.93-4.95H93V17.27h3.27V10.54h.42l4.53,6.73h4l-5.28-7.06A4.46,4.46,0,0,0,103.76,5.46ZM97.2,8.23h-1V3.15h1c2,0,3.15.86,3.15,2.49S99.29,8.23,97.2,8.23Z" transform="translate(0 0.14)"/><path class="cls-3" d="M106.36,1.39c0-.29-.2-.45-.56-.45h-.47V2.41h.35V1.84l.42.57h.43L106,1.8A.39.39,0,0,0,106.36,1.39Zm-.62.2h-.06V1.21h.07c.17,0,.26.06.26.19S105.92,1.59,105.74,1.59Z" transform="translate(0 0.14)"/><path class="cls-3" d="M105.88.38a1.29,1.29,0,1,0,1.27,1.29A1.29,1.29,0,0,0,105.88.38Zm0,2.35a1,1,0,0,1-1-1.06,1,1,0,1,1,2,0A1,1,0,0,1,105.87,2.73Z" transform="translate(0 0.14)"/><path class="cls-4" d="M64.9,8.87A8.88,8.88,0,1,1,56,0,8.88,8.88,0,0,1,64.9,8.87Z" transform="translate(0 0.14)"/><path class="cls-5" d="M64.9,8.87A8.88,8.88,0,1,1,56,0,8.88,8.88,0,0,1,64.9,8.87Z" transform="translate(0 0.14)"/><g class="cls-6"><g class="cls-7"><path class="cls-8" d="M56.06-.14A9.05,9.05,0,1,1,47,8.91,9,9,0,0,1,56.06-.14Z" transform="translate(0 0.14)"/><path class="cls-9" d="M56.07-.13a9,9,0,1,1-9,9.05A9.05,9.05,0,0,1,56.07-.13Z" transform="translate(0 0.14)"/><path class="cls-10" d="M56.07-.12a9.05,9.05,0,1,1-9,9A9.05,9.05,0,0,1,56.07-.12Z" transform="translate(0 0.14)"/><path class="cls-11" d="M56.08-.1a9,9,0,1,1-9,9A9,9,0,0,1,56.08-.1Z" transform="translate(0 0.14)"/><path class="cls-12" d="M56.09-.09A9,9,0,1,1,47,9,9,9,0,0,1,56.09-.09Z" transform="translate(0 0.14)"/><path class="cls-13" d="M56.09-.08a9,9,0,1,1-9,9A9,9,0,0,1,56.09-.08Z" transform="translate(0 0.14)"/><path class="cls-14" d="M56.1-.07a9,9,0,1,1-9,9A9,9,0,0,1,56.1-.07Z" transform="translate(0 0.14)"/><path class="cls-15" d="M56.11-.06a9,9,0,1,1-9,9A9,9,0,0,1,56.11-.06Z" transform="translate(0 0.14)"/><path class="cls-16" d="M56.12,0a9,9,0,1,1-9,9A9,9,0,0,1,56.12,0Z" transform="translate(0 0.14)"/><path class="cls-17" d="M56.12,0a9,9,0,1,1-9,9A9,9,0,0,1,56.12,0Z" transform="translate(0 0.14)"/><path class="cls-18" d="M56.13,0a9,9,0,1,1-9,9A9,9,0,0,1,56.13,0Z" transform="translate(0 0.14)"/><path class="cls-19" d="M56.14,0a9,9,0,0,1,9.08,9,9.14,9.14,0,0,1-9.08,9.11A9,9,0,0,1,56.14,0Z" transform="translate(0 0.14)"/><path class="cls-20" d="M56.14,0a9,9,0,0,1,9.09,9,9.15,9.15,0,0,1-9.09,9.11A9,9,0,0,1,56.14,0Z" transform="translate(0 0.14)"/><path class="cls-21" d="M56.15,0a9,9,0,0,1,9.09,9,9.15,9.15,0,0,1-9.09,9.11A9,9,0,0,1,56.15,0Z" transform="translate(0 0.14)"/><path class="cls-22" d="M56.16,0a9,9,0,0,1,9.09,9,9.15,9.15,0,0,1-9.09,9.11A9,9,0,1,1,56.16,0Z" transform="translate(0 0.14)"/><path class="cls-23" d="M56.17,0A9,9,0,0,1,65.26,9a9.16,9.16,0,0,1-9.09,9.12A9,9,0,1,1,56.17,0Z" transform="translate(0 0.14)"/><path class="cls-24" d="M56.17,0A9,9,0,0,1,65.27,9a9.17,9.17,0,0,1-9.1,9.13A9,9,0,0,1,56.17,0Z" transform="translate(0 0.14)"/><path class="cls-25" d="M56.18.05A9,9,0,0,1,65.28,9a9.17,9.17,0,0,1-9.1,9.13,9,9,0,0,1,0-18.06Z" transform="translate(0 0.14)"/><path class="cls-26" d="M56.19.06A9,9,0,0,1,65.29,9a9.19,9.19,0,0,1-9.1,9.14,9,9,0,0,1,0-18.06Z" transform="translate(0 0.14)"/><path class="cls-27" d="M56.19.07A9,9,0,0,1,65.3,9a9.2,9.2,0,0,1-9.11,9.14,9,9,0,0,1,0-18.06Z" transform="translate(0 0.14)"/><path class="cls-28" d="M56.2.08A9,9,0,0,1,65.31,9a9.2,9.2,0,0,1-9.11,9.15A9,9,0,0,1,56.2.08Z" transform="translate(0 0.14)"/><path class="cls-29" d="M56.21.09A9,9,0,0,1,65.32,9a9.2,9.2,0,0,1-9.11,9.14,9,9,0,1,1,0-18Z" transform="translate(0 0.14)"/><path class="cls-30" d="M56.22.11A9,9,0,0,1,65.33,9a9.21,9.21,0,0,1-9.11,9.15,9,9,0,1,1,0-18Z" transform="translate(0 0.14)"/><path class="cls-31" d="M56.22.12A9,9,0,0,1,65.34,9a9.22,9.22,0,0,1-9.12,9.16,9,9,0,1,1,0-18Z" transform="translate(0 0.14)"/><path class="cls-32" d="M56.23.13A9,9,0,0,1,65.35,9a9.23,9.23,0,0,1-9.12,9.16,9,9,0,1,1,0-18Z" transform="translate(0 0.14)"/><path class="cls-33" d="M56.24.14A9,9,0,0,1,65.36,9a9.23,9.23,0,0,1-9.12,9.17,9,9,0,0,1,0-18Z" transform="translate(0 0.14)"/><path class="cls-34" d="M56.24.15A9,9,0,0,1,65.37,9a9.25,9.25,0,0,1-9.13,9.17,9,9,0,0,1,0-18Z" transform="translate(0 0.14)"/><path class="cls-35" d="M56.25.16A9,9,0,0,1,65.38,9a9.25,9.25,0,0,1-9.13,9.18,9,9,0,0,1,0-18Z" transform="translate(0 0.14)"/><path class="cls-36" d="M56.26.17A9,9,0,0,1,65.39,9a9.25,9.25,0,0,1-9.13,9.17,9,9,0,1,1,0-18Z" transform="translate(0 0.14)"/><path class="cls-37" d="M56.27.18A9,9,0,0,1,65.4,9a9.26,9.26,0,0,1-9.13,9.18,9,9,0,1,1,0-18Z" transform="translate(0 0.14)"/><path class="cls-38" d="M56.27.19A9,9,0,0,1,65.41,9a9.27,9.27,0,0,1-9.14,9.19,9,9,0,0,1,0-18Z" transform="translate(0 0.14)"/><path class="cls-39" d="M56.28.2A9,9,0,0,1,65.42,9a9.27,9.27,0,0,1-9.14,9.19,9,9,0,0,1,0-18Z" transform="translate(0 0.14)"/><path class="cls-40" d="M56.29.22A9,9,0,0,1,65.43,9a9.29,9.29,0,0,1-9.14,9.2,9,9,0,1,1,0-18Z" transform="translate(0 0.14)"/><path class="cls-41" d="M56.29.23a9,9,0,0,1,9.15,8.82,9.3,9.3,0,0,1-9.15,9.2,9,9,0,1,1,0-18Z" transform="translate(0 0.14)"/><path class="cls-42" d="M56.3.24a9,9,0,0,1,9.15,8.81,9.3,9.3,0,0,1-9.15,9.21,9,9,0,1,1,0-18Z" transform="translate(0 0.14)"/><path class="cls-43" d="M56.31.25a9,9,0,0,1,9.15,8.81,9.31,9.31,0,0,1-9.15,9.21,9,9,0,0,1,0-18Z" transform="translate(0 0.14)"/><path class="cls-44" d="M56.32.26a9,9,0,0,1,9.15,8.8,9.31,9.31,0,0,1-9.15,9.21,9,9,0,1,1,0-18Z" transform="translate(0 0.14)"/><path class="cls-45" d="M56.32.27a9,9,0,0,1,9.16,8.79,9.32,9.32,0,0,1-9.16,9.22,9,9,0,0,1,0-18Z" transform="translate(0 0.14)"/><path class="cls-46" d="M56.33.28a9,9,0,0,1,9.16,8.79,9.33,9.33,0,0,1-9.16,9.22,9,9,0,1,1,0-18Z" transform="translate(0 0.14)"/><path class="cls-47" d="M56.34.29A9,9,0,0,1,65.5,9.07a9.33,9.33,0,0,1-9.16,9.23,9,9,0,1,1,0-18Z" transform="translate(0 0.14)"/><path class="cls-48" d="M56.34.3a9,9,0,0,1,9.17,8.78,9.34,9.34,0,0,1-9.17,9.23,9,9,0,0,1,0-18Z" transform="translate(0 0.14)"/><path class="cls-49" d="M56.35.31a9,9,0,0,1,9.17,8.77,9.35,9.35,0,0,1-9.17,9.24,9,9,0,0,1,0-18Z" transform="translate(0 0.14)"/><path class="cls-50" d="M56.36.33a9,9,0,0,1,9.17,8.75,9.36,9.36,0,0,1-9.17,9.25,9,9,0,0,1,0-18Z" transform="translate(0 0.14)"/><path class="cls-51" d="M56.37.34a9,9,0,0,1,9.17,8.75,9.36,9.36,0,0,1-9.17,9.24,9,9,0,1,1,0-18Z" transform="translate(0 0.14)"/><path class="cls-52" d="M56.37.35c5,.05,9.18,3.77,9.18,8.74a9.37,9.37,0,0,1-9.18,9.25,9,9,0,1,1,0-18Z" transform="translate(0 0.14)"/><path class="cls-53" d="M56.38.36c5,0,9.18,3.77,9.18,8.74a9.37,9.37,0,0,1-9.18,9.25,9,9,0,1,1,0-18Z" transform="translate(0 0.14)"/><path class="cls-54" d="M56.39.37c5,0,9.18,3.76,9.18,8.73a9.39,9.39,0,0,1-9.18,9.26,9,9,0,1,1,0-18Z" transform="translate(0 0.14)"/><path class="cls-55" d="M56.39.38c5,.06,9.19,3.76,9.19,8.73a9.4,9.4,0,0,1-9.19,9.26,9,9,0,0,1,0-18Z" transform="translate(0 0.14)"/><path class="cls-56" d="M56.4.39c5,.06,9.19,3.75,9.19,8.72a9.4,9.4,0,0,1-9.19,9.27,9,9,0,0,1,0-18Z" transform="translate(0 0.14)"/><path class="cls-57" d="M56.41.4c5,.06,9.19,3.75,9.19,8.71a9.41,9.41,0,0,1-9.19,9.28,9,9,0,0,1,0-18Z" transform="translate(0 0.14)"/><path class="cls-58" d="M56.42.41c5,.06,9.19,3.74,9.19,8.71a9.41,9.41,0,0,1-9.19,9.27,9,9,0,1,1,0-18Z" transform="translate(0 0.14)"/><path class="cls-59" d="M56.42.42c5,.06,9.2,3.74,9.2,8.7a9.42,9.42,0,0,1-9.2,9.28,9,9,0,0,1,0-18Z" transform="translate(0 0.14)"/><path class="cls-60" d="M56.43.44c5,.06,9.2,3.72,9.2,8.69a9.43,9.43,0,0,1-9.2,9.28,9,9,0,1,1,0-18Z" transform="translate(0 0.14)"/><path class="cls-61" d="M56.44.45c5,.06,9.2,3.72,9.2,8.68a9.43,9.43,0,0,1-9.2,9.29,9,9,0,1,1,0-18Z" transform="translate(0 0.14)"/><path class="cls-62" d="M56.44.46c5,.06,9.21,3.71,9.21,8.68a9.44,9.44,0,0,1-9.21,9.29,9,9,0,0,1,0-18Z" transform="translate(0 0.14)"/><path class="cls-63" d="M56.45.47c5,.06,9.21,3.71,9.21,8.67a9.46,9.46,0,0,1-9.21,9.3,9,9,0,0,1,0-18Z" transform="translate(0 0.14)"/><path class="cls-64" d="M56.46.48c5,.06,9.21,3.7,9.21,8.66a9.46,9.46,0,0,1-9.21,9.31,9,9,0,1,1,0-18Z" transform="translate(0 0.14)"/><path class="cls-65" d="M56.46.49c5,.07,9.22,3.7,9.22,8.66a9.47,9.47,0,0,1-9.22,9.31,9,9,0,0,1,0-18Z" transform="translate(0 0.14)"/><path class="cls-66" d="M56.47.5c5,.07,9.22,3.69,9.22,8.65a9.47,9.47,0,0,1-9.22,9.31,9,9,0,1,1,0-18Z" transform="translate(0 0.14)"/><path class="cls-67" d="M56.48.51c5,.07,9.21,3.69,9.21,8.65a9.47,9.47,0,0,1-9.21,9.31,9,9,0,1,1,0-18Z" transform="translate(0 0.14)"/><path class="cls-68" d="M56.49.52C61.44.59,65.7,4.2,65.7,9.16a9.48,9.48,0,0,1-9.21,9.32,9,9,0,0,1,0-18Z" transform="translate(0 0.14)"/><path class="cls-69" d="M56.49.54c5,.07,9.22,3.67,9.22,8.63a9.49,9.49,0,0,1-9.22,9.32,9,9,0,0,1,0-17.95Z" transform="translate(0 0.14)"/><path class="cls-70" d="M56.5.55c5,.07,9.22,3.66,9.22,8.62A9.49,9.49,0,0,1,56.5,18.5,9,9,0,1,1,56.5.55Z" transform="translate(0 0.14)"/><path class="cls-71" d="M56.51.56c5,.07,9.22,3.66,9.22,8.61a9.51,9.51,0,0,1-9.22,9.34,9,9,0,1,1,0-18Z" transform="translate(0 0.14)"/><path class="cls-72" d="M56.51.57c5,.07,9.23,3.65,9.23,8.61a9.52,9.52,0,0,1-9.23,9.34,9,9,0,0,1,0-17.95Z" transform="translate(0 0.14)"/><path class="cls-73" d="M56.52.58c5,.07,9.23,3.65,9.23,8.6a9.51,9.51,0,0,1-9.23,9.34,9,9,0,0,1,0-17.94Z" transform="translate(0 0.14)"/><path class="cls-74" d="M56.53.59c4.95.08,9.23,3.64,9.23,8.6a9.52,9.52,0,0,1-9.23,9.34,9,9,0,1,1,0-17.94Z" transform="translate(0 0.14)"/><path class="cls-75" d="M56.54.6c5,.08,9.23,3.64,9.23,8.59a9.53,9.53,0,0,1-9.23,9.35A9,9,0,1,1,56.54.6Z" transform="translate(0 0.14)"/><path class="cls-76" d="M56.54.61c5,.08,9.24,3.63,9.24,8.58a9.54,9.54,0,0,1-9.24,9.36,9,9,0,1,1,0-17.94Z" transform="translate(0 0.14)"/><path class="cls-77" d="M56.55.62c5,.08,9.24,3.63,9.24,8.58a9.55,9.55,0,0,1-9.24,9.36,9,9,0,0,1,0-17.94Z" transform="translate(0 0.14)"/><path class="cls-78" d="M56.56.63C61.51.72,65.8,4.25,65.8,9.2a9.55,9.55,0,0,1-9.24,9.37,9,9,0,0,1,0-17.94Z" transform="translate(0 0.14)"/><path class="cls-79" d="M56.56.65c4.95.08,9.25,3.61,9.25,8.56a9.56,9.56,0,0,1-9.25,9.37,9,9,0,0,1,0-17.93Z" transform="translate(0 0.14)"/><path class="cls-80" d="M56.57.66c5,.08,9.25,3.6,9.25,8.55a9.57,9.57,0,0,1-9.25,9.37,9,9,0,0,1,0-17.92Z" transform="translate(0 0.14)"/><path class="cls-81" d="M56.58.67c5,.08,9.25,3.6,9.25,8.55a9.57,9.57,0,0,1-9.25,9.37,9,9,0,0,1,0-17.92Z" transform="translate(0 0.14)"/><path class="cls-82" d="M56.59.68c4.94.08,9.25,3.59,9.25,8.54a9.58,9.58,0,0,1-9.25,9.38,9,9,0,1,1,0-17.92Z" transform="translate(0 0.14)"/><path class="cls-83" d="M56.59.69c4.95.09,9.26,3.59,9.26,8.53a9.59,9.59,0,0,1-9.26,9.39,9,9,0,0,1,0-17.92Z" transform="translate(0 0.14)"/><path class="cls-84" d="M56.6.7c4.95.09,9.26,3.58,9.26,8.53a9.59,9.59,0,0,1-9.26,9.39A9,9,0,0,1,56.6.7Z" transform="translate(0 0.14)"/><path class="cls-85" d="M56.61.71c4.94.09,9.26,3.58,9.26,8.52a9.61,9.61,0,0,1-9.26,9.4,9,9,0,0,1,0-17.92Z" transform="translate(0 0.14)"/><path class="cls-86" d="M56.61.72c5,.09,9.27,3.57,9.27,8.52a9.62,9.62,0,0,1-9.27,9.4,9,9,0,0,1,0-17.92Z" transform="translate(0 0.14)"/><path class="cls-87" d="M56.62.73c5,.09,9.27,3.57,9.27,8.51a9.62,9.62,0,0,1-9.27,9.41,9,9,0,0,1,0-17.92Z" transform="translate(0 0.14)"/><path class="cls-88" d="M56.63.74c4.94.1,9.27,3.56,9.27,8.51a9.63,9.63,0,0,1-9.27,9.4,8.91,8.91,0,0,1-9-8.95A9,9,0,0,1,56.63.74Z" transform="translate(0 0.14)"/><path class="cls-89" d="M56.64.76c4.94.09,9.27,3.55,9.27,8.49a9.63,9.63,0,0,1-9.27,9.41,9,9,0,1,1,0-17.9Z" transform="translate(0 0.14)"/><path class="cls-90" d="M56.64.77c5,.09,9.28,3.54,9.28,8.48a9.64,9.64,0,0,1-9.28,9.42,9,9,0,0,1,0-17.9Z" transform="translate(0 0.14)"/><path class="cls-91" d="M56.65.78c4.94.09,9.28,3.53,9.28,8.48a9.65,9.65,0,0,1-9.28,9.42,8.95,8.95,0,1,1,0-17.9Z" transform="translate(0 0.14)"/><path class="cls-92" d="M56.66.79c4.94.1,9.28,3.53,9.28,8.47a9.65,9.65,0,0,1-9.28,9.43,9,9,0,1,1,0-17.9Z" transform="translate(0 0.14)"/><path class="cls-93" d="M56.66.8C61.6.9,66,4.32,66,9.27a9.66,9.66,0,0,1-9.29,9.43,9,9,0,0,1,0-17.9Z" transform="translate(0 0.14)"/><path class="cls-94" d="M56.67.81C61.61.91,66,4.33,66,9.27a9.68,9.68,0,0,1-9.29,9.44,9,9,0,0,1,0-17.9Z" transform="translate(0 0.14)"/><path class="cls-95" d="M56.68.82C61.62.92,66,4.33,66,9.28a9.67,9.67,0,0,1-9.29,9.43,8.89,8.89,0,0,1-9-8.94A9,9,0,0,1,56.68.82Z" transform="translate(0 0.14)"/><path class="cls-96" d="M56.69.83C61.62.93,66,4.34,66,9.28a9.68,9.68,0,0,1-9.29,9.44,8.89,8.89,0,0,1-8.95-8.94A9,9,0,0,1,56.69.83Z" transform="translate(0 0.14)"/><path class="cls-97" d="M56.69.84C61.63,1,66,4.34,66,9.28a9.7,9.7,0,0,1-9.3,9.45,8.88,8.88,0,0,1-8.94-8.94A9,9,0,0,1,56.69.84Z" transform="translate(0 0.14)"/><path class="cls-98" d="M56.7.85C61.64,1,66,4.35,66,9.29a9.7,9.7,0,0,1-9.3,9.45A8.88,8.88,0,0,1,47.76,9.8,9,9,0,0,1,56.7.85Z" transform="translate(0 0.14)"/><path class="cls-99" d="M56.71.87C61.64,1,66,4.35,66,9.29a9.71,9.71,0,0,1-9.3,9.46,8.94,8.94,0,1,1,0-17.88Z" transform="translate(0 0.14)"/><path class="cls-100" d="M56.71.88C61.65,1,66,4.36,66,9.3a9.72,9.72,0,0,1-9.31,9.46,8.94,8.94,0,1,1,0-17.88Z" transform="translate(0 0.14)"/><path class="cls-101" d="M56.72.89C61.66,1,66,4.36,66,9.3a9.72,9.72,0,0,1-9.31,9.47,8.89,8.89,0,0,1-8.94-8.94A9,9,0,0,1,56.72.89Z" transform="translate(0 0.14)"/><path class="cls-102" d="M56.73.9C61.66,1,66,4.37,66,9.31a9.73,9.73,0,0,1-9.31,9.46,8.88,8.88,0,0,1-8.94-8.93A9,9,0,0,1,56.73.9Z" transform="translate(0 0.14)"/><path class="cls-103" d="M56.74.91c4.93.11,9.31,3.46,9.31,8.4a9.73,9.73,0,0,1-9.31,9.47A8.87,8.87,0,0,1,47.8,9.85,9,9,0,0,1,56.74.91Z" transform="translate(0 0.14)"/><path class="cls-104" d="M56.74.92c4.94.11,9.32,3.46,9.32,8.39a9.74,9.74,0,0,1-9.32,9.48,8.87,8.87,0,0,1-8.93-8.93A9,9,0,0,1,56.74.92Z" transform="translate(0 0.14)"/><path class="cls-105" d="M56.75.93c4.93.11,9.32,3.45,9.32,8.39a9.76,9.76,0,0,1-9.32,9.48,8.87,8.87,0,0,1-8.93-8.93A9,9,0,0,1,56.75.93Z" transform="translate(0 0.14)"/><path class="cls-106" d="M56.76.94c4.93.12,9.32,3.45,9.32,8.38a9.76,9.76,0,0,1-9.32,9.49,8.87,8.87,0,0,1-8.94-8.93A9,9,0,0,1,56.76.94Z" transform="translate(0 0.14)"/><path class="cls-107" d="M56.76,1c4.94.12,9.33,3.44,9.33,8.38a9.77,9.77,0,0,1-9.33,9.49,8.87,8.87,0,0,1-8.93-8.93A9,9,0,0,1,56.76,1Z" transform="translate(0 0.14)"/><path class="cls-108" d="M56.77,1c4.93.11,9.33,3.43,9.33,8.36s-4.4,9.5-9.33,9.5A8.87,8.87,0,0,1,47.84,9.9,9,9,0,0,1,56.77,1Z" transform="translate(0 0.14)"/><path class="cls-109" d="M56.78,1c4.93.11,9.33,3.42,9.33,8.35s-4.4,9.51-9.33,9.51a8.87,8.87,0,0,1-8.93-8.93A9,9,0,0,1,56.78,1Z" transform="translate(0 0.14)"/><path class="cls-110" d="M56.79,1c4.92.11,9.33,3.42,9.33,8.35s-4.4,9.5-9.33,9.5a8.85,8.85,0,0,1-8.93-8.92A9,9,0,0,1,56.79,1Z" transform="translate(0 0.14)"/><path class="cls-111" d="M56.79,1c4.93.12,9.34,3.41,9.34,8.34s-4.41,9.51-9.34,9.51a8.85,8.85,0,0,1-8.92-8.92A9,9,0,0,1,56.79,1Z" transform="translate(0 0.14)"/><path class="cls-112" d="M56.8,1c4.93.12,9.34,3.41,9.34,8.34s-4.41,9.51-9.34,9.51a8.87,8.87,0,0,1-8.93-8.92A9,9,0,0,1,56.8,1Z" transform="translate(0 0.14)"/><path class="cls-113" d="M56.81,1c4.92.12,9.34,3.4,9.34,8.33s-4.41,9.52-9.34,9.52A8.87,8.87,0,0,1,47.88,10,9,9,0,0,1,56.81,1Z" transform="translate(0 0.14)"/><path class="cls-114" d="M56.81,1c4.93.12,9.35,3.4,9.35,8.33s-4.42,9.52-9.35,9.52A8.86,8.86,0,0,1,47.89,10,9,9,0,0,1,56.81,1Z" transform="translate(0 0.14)"/><path class="cls-115" d="M56.82,1c4.93.13,9.35,3.39,9.35,8.32s-4.42,9.53-9.35,9.53A8.85,8.85,0,0,1,47.9,10,9,9,0,0,1,56.82,1Z" transform="translate(0 0.14)"/><path class="cls-116" d="M56.83,1.05c4.92.13,9.35,3.39,9.35,8.31s-4.42,9.54-9.35,9.54A8.85,8.85,0,0,1,47.91,10,9,9,0,0,1,56.83,1.05Z" transform="translate(0 0.14)"/><path class="cls-117" d="M56.84,1.06c4.92.13,9.35,3.38,9.35,8.31s-4.43,9.53-9.35,9.53A8.84,8.84,0,0,1,47.92,10,9,9,0,0,1,56.84,1.06Z" transform="translate(0 0.14)"/><path class="cls-118" d="M56.84,1.08c4.93.12,9.36,3.37,9.36,8.29s-4.43,9.54-9.36,9.54A8.85,8.85,0,0,1,47.92,10,9,9,0,0,1,56.84,1.08Z" transform="translate(0 0.14)"/><path class="cls-119" d="M56.85,1.09c4.92.12,9.36,3.36,9.36,8.29s-4.44,9.54-9.36,9.54A8.85,8.85,0,0,1,47.93,10,9,9,0,0,1,56.85,1.09Z" transform="translate(0 0.14)"/><path class="cls-120" d="M56.86,1.1c4.92.13,9.36,3.36,9.36,8.28s-4.44,9.55-9.36,9.55A8.85,8.85,0,0,1,47.94,10,9,9,0,0,1,56.86,1.1Z" transform="translate(0 0.14)"/><path class="cls-121" d="M56.86,1.11c4.93.13,9.37,3.35,9.37,8.28s-4.44,9.55-9.37,9.55A8.84,8.84,0,0,1,48,10,9,9,0,0,1,56.86,1.11Z" transform="translate(0 0.14)"/><path class="cls-122" d="M56.87,1.12c4.92.13,9.37,3.35,9.37,8.27S61.79,19,56.87,19A8.84,8.84,0,0,1,48,10,9,9,0,0,1,56.87,1.12Z" transform="translate(0 0.14)"/><path class="cls-123" d="M56.88,1.13c4.92.13,9.37,3.34,9.37,8.26S61.8,19,56.88,19A8.84,8.84,0,0,1,48,10,9,9,0,0,1,56.88,1.13Z" transform="translate(0 0.14)"/><path class="cls-124" d="M56.89,1.14c4.92.13,9.37,3.34,9.37,8.26S61.81,19,56.89,19A8.85,8.85,0,0,1,48,10.05,9,9,0,0,1,56.89,1.14Z" transform="translate(0 0.14)"/><path class="cls-125" d="M56.89,1.15c4.92.14,9.38,3.33,9.38,8.25S61.81,19,56.89,19A8.84,8.84,0,0,1,48,10.06,9,9,0,0,1,56.89,1.15Z" transform="translate(0 0.14)"/><path class="cls-126" d="M56.9,1.16c4.92.14,9.38,3.33,9.38,8.25S61.82,19,56.9,19A8.84,8.84,0,0,1,48,10.07,9,9,0,0,1,56.9,1.16Z" transform="translate(0 0.14)"/><path class="cls-127" d="M56.91,1.17c4.91.14,9.38,3.32,9.38,8.24S61.83,19,56.91,19A8.84,8.84,0,0,1,48,10.08,9,9,0,0,1,56.91,1.17Z" transform="translate(0 0.14)"/><path class="cls-128" d="M56.91,1.19c4.92.13,9.39,3.31,9.39,8.23S61.83,19,56.91,19A8.83,8.83,0,0,1,48,10.09,8.94,8.94,0,0,1,56.91,1.19Z" transform="translate(0 0.14)"/><path class="cls-129" d="M56.92,1.2c4.92.14,9.39,3.3,9.39,8.22S61.84,19,56.92,19A8.82,8.82,0,0,1,48,10.1,8.94,8.94,0,0,1,56.92,1.2Z" transform="translate(0 0.14)"/><path class="cls-130" d="M56.93,1.21c4.91.14,9.39,3.3,9.39,8.21S61.85,19,56.93,19A8.84,8.84,0,0,1,48,10.11,9,9,0,0,1,56.93,1.21Z" transform="translate(0 0.14)"/><path class="cls-131" d="M56.94,1.22c4.91.14,9.39,3.29,9.39,8.21S61.85,19,56.94,19A8.84,8.84,0,0,1,48,10.12,9,9,0,0,1,56.94,1.22Z" transform="translate(0 0.14)"/><path class="cls-132" d="M56.94,1.23c4.92.14,9.4,3.29,9.4,8.2S61.86,19,56.94,19a8.82,8.82,0,0,1-8.9-8.9A9,9,0,0,1,56.94,1.23Z" transform="translate(0 0.14)"/><path class="cls-133" d="M57,1.24c4.91.14,9.4,3.28,9.4,8.2S61.87,19,57,19a8.81,8.81,0,0,1-8.9-8.9A9,9,0,0,1,57,1.24Z" transform="translate(0 0.14)"/><path class="cls-134" d="M57,1.25c4.91.15,9.4,3.28,9.4,8.19s-4.49,9.61-9.4,9.61a8.81,8.81,0,0,1-8.9-8.9A9,9,0,0,1,57,1.25Z" transform="translate(0 0.14)"/><path class="cls-135" d="M57,1.26c4.92.15,9.41,3.27,9.41,8.18S61.88,19.06,57,19.06a8.83,8.83,0,0,1-8.9-8.9C48.2,5.15,52.24,1.12,57,1.26Z" transform="translate(0 0.14)"/><path class="cls-136" d="M57,1.27c4.91.15,9.41,3.26,9.41,8.18S61.89,19.07,57,19.07a8.82,8.82,0,0,1-8.9-8.9C48.21,5.16,52.25,1.13,57,1.27Z" transform="translate(0 0.14)"/><path class="cls-137" d="M57,1.28c4.91.15,9.41,3.26,9.41,8.17s-4.5,9.63-9.41,9.63a8.82,8.82,0,0,1-8.9-8.9C48.22,5.17,52.26,1.14,57,1.28Z" transform="translate(0 0.14)"/><path class="cls-138" d="M57,1.3c4.91.15,9.41,3.24,9.41,8.16S61.9,19.09,57,19.09a8.82,8.82,0,0,1-8.9-8.9A8.93,8.93,0,0,1,57,1.3Z" transform="translate(0 0.14)"/><path class="cls-139" d="M57,1.31c4.91.15,9.42,3.24,9.42,8.15S61.9,19.09,57,19.09A8.81,8.81,0,0,1,48.1,10.2C48.23,5.19,52.27,1.16,57,1.31Z" transform="translate(0 0.14)"/><path class="cls-140" d="M57,1.32c4.91.15,9.42,3.23,9.42,8.15S61.91,19.1,57,19.1a8.8,8.8,0,0,1-8.89-8.89C48.24,5.2,52.28,1.17,57,1.32Z" transform="translate(0 0.14)"/><path class="cls-141" d="M57,1.33c4.9.15,9.42,3.23,9.42,8.14S61.92,19.11,57,19.11a8.82,8.82,0,0,1-8.9-8.89C48.25,5.21,52.29,1.18,57,1.33Z" transform="translate(0 0.14)"/><path class="cls-142" d="M57,1.34c4.91.15,9.43,3.22,9.43,8.13S61.92,19.12,57,19.12a8.81,8.81,0,0,1-8.89-8.89C48.26,5.22,52.3,1.19,57,1.34Z" transform="translate(0 0.14)"/><path class="cls-143" d="M57,1.35c4.91.16,9.43,3.22,9.43,8.13S61.93,19.13,57,19.13a8.81,8.81,0,0,1-8.89-8.89C48.27,5.23,52.31,1.2,57,1.35Z" transform="translate(0 0.14)"/><path class="cls-144" d="M57,1.36c4.9.16,9.43,3.21,9.43,8.12S61.94,19.14,57,19.14a8.8,8.8,0,0,1-8.89-8.89C48.28,5.24,52.32,1.21,57,1.36Z" transform="translate(0 0.14)"/><path class="cls-145" d="M57,1.37c4.9.16,9.43,3.21,9.43,8.12S61.94,19.15,57,19.15a8.8,8.8,0,0,1-8.89-8.89C48.29,5.25,52.33,1.22,57,1.37Z" transform="translate(0 0.14)"/><path class="cls-146" d="M57,1.38c4.91.16,9.44,3.2,9.44,8.11S62,19.16,57,19.16a8.8,8.8,0,0,1-8.88-8.89C48.3,5.26,52.34,1.23,57,1.38Z" transform="translate(0 0.14)"/><path class="cls-147" d="M57.05,1.4c4.9.15,9.44,3.19,9.44,8.1S62,19.16,57.05,19.16a8.8,8.8,0,0,1-8.89-8.88C48.31,5.27,52.35,1.24,57.05,1.4Z" transform="translate(0 0.14)"/><path class="cls-148" d="M57.06,1.41c4.9.16,9.43,3.18,9.43,8.09S62,19.17,57.06,19.17a8.8,8.8,0,0,1-8.89-8.88C48.32,5.28,52.36,1.25,57.06,1.41Z" transform="translate(0 0.14)"/><path class="cls-149" d="M57.06,1.42C62,1.58,66.5,4.6,66.5,9.5S62,19.18,57.06,19.18a8.8,8.8,0,0,1-8.88-8.88C48.33,5.28,52.37,1.26,57.06,1.42Z" transform="translate(0 0.14)"/><path class="cls-150" d="M57.07,1.43c4.9.16,9.44,3.17,9.44,8.08S62,19.19,57.07,19.19a8.8,8.8,0,0,1-8.88-8.88C48.34,5.29,52.38,1.27,57.07,1.43Z" transform="translate(0 0.14)"/><path class="cls-151" d="M57.08,1.44c4.9.16,9.44,3.17,9.44,8.07S62,19.2,57.08,19.2a8.78,8.78,0,0,1-8.88-8.88C48.35,5.3,52.38,1.28,57.08,1.44Z" transform="translate(0 0.14)"/><path class="cls-152" d="M57.09,1.45c4.9.17,9.44,3.16,9.44,8.07S62,19.21,57.09,19.21a8.78,8.78,0,0,1-8.88-8.88C48.36,5.31,52.39,1.29,57.09,1.45Z" transform="translate(0 0.14)"/><path class="cls-153" d="M57.09,1.46c4.9.17,9.45,3.16,9.45,8.06s-4.54,9.7-9.45,9.7a8.8,8.8,0,0,1-8.88-8.88C48.36,5.32,52.4,1.3,57.09,1.46Z" transform="translate(0 0.14)"/><path class="cls-154" d="M57.1,1.47c4.9.17,9.45,3.15,9.45,8.06S62,19.22,57.1,19.22a8.79,8.79,0,0,1-8.88-8.87C48.37,5.33,52.41,1.31,57.1,1.47Z" transform="translate(0 0.14)"/><path class="cls-155" d="M57.11,1.48c4.9.17,9.45,3.15,9.45,8s-4.55,9.7-9.45,9.7a8.78,8.78,0,0,1-8.88-8.87C48.38,5.34,52.42,1.32,57.11,1.48Z" transform="translate(0 0.14)"/><path class="cls-156" d="M66.57,9.53c0,4.9-4.56,9.71-9.46,9.71a8.77,8.77,0,0,1-8.87-8.87c.15-5,4.19-9,8.87-8.88C62,1.66,66.57,4.63,66.57,9.53Z" transform="translate(0 0.14)"/><path class="cls-157" d="M57.12,1.5c4.9.17,9.46,3.15,9.46,8.05s-4.56,9.7-9.46,9.7a8.77,8.77,0,0,1-8.87-8.87C48.4,5.36,52.43,1.34,57.12,1.5Z" transform="translate(0 0.14)"/><path class="cls-158" d="M57.12,1.51c4.9.17,9.46,3.15,9.46,8.05s-4.55,9.7-9.46,9.7a8.78,8.78,0,0,1-8.87-8.88C48.4,5.37,52.44,1.35,57.12,1.51Z" transform="translate(0 0.14)"/><path class="cls-159" d="M57.13,1.52c4.9.17,9.45,3.15,9.45,8.06S62,19.27,57.13,19.27a8.78,8.78,0,0,1-8.87-8.88C48.41,5.38,52.44,1.36,57.13,1.52Z" transform="translate(0 0.14)"/><path class="cls-160" d="M57.14,1.53c4.89.16,9.44,3.16,9.44,8.06S62,19.28,57.14,19.28a8.8,8.8,0,0,1-8.88-8.88C48.41,5.39,52.45,1.37,57.14,1.53Z" transform="translate(0 0.14)"/><path class="cls-161" d="M57.14,1.54C62,1.7,66.58,4.7,66.58,9.6S62,19.28,57.14,19.28a8.77,8.77,0,0,1-8.87-8.87C48.42,5.4,52.45,1.38,57.14,1.54Z" transform="translate(0 0.14)"/><path class="cls-162" d="M57.15,1.54c4.9.17,9.43,3.18,9.43,8.08s-4.53,9.67-9.43,9.67a8.79,8.79,0,0,1-8.88-8.87C48.42,5.41,52.46,1.39,57.15,1.54Z" transform="translate(0 0.14)"/><path class="cls-163" d="M57.15,1.55c4.9.16,9.44,3.18,9.44,8.08s-4.54,9.67-9.44,9.67a8.78,8.78,0,0,1-8.87-8.87C48.42,5.42,52.46,1.4,57.15,1.55Z" transform="translate(0 0.14)"/><path class="cls-164" d="M57.16,1.56c4.9.16,9.43,3.18,9.43,8.09s-4.53,9.66-9.43,9.66a8.8,8.8,0,0,1-8.88-8.88C48.43,5.43,52.46,1.41,57.16,1.56Z" transform="translate(0 0.14)"/><path class="cls-165" d="M57.16,1.57c4.9.16,9.43,3.19,9.43,8.09s-4.53,9.66-9.43,9.66a8.79,8.79,0,0,1-8.87-8.88C48.43,5.44,52.47,1.42,57.16,1.57Z" transform="translate(0 0.14)"/><path class="cls-166" d="M57.17,1.58c4.9.16,9.42,3.19,9.42,8.09s-4.52,9.66-9.42,9.66a8.79,8.79,0,0,1-8.87-8.88C48.44,5.44,52.47,1.43,57.17,1.58Z" transform="translate(0 0.14)"/><path class="cls-167" d="M57.18,1.59c4.89.15,9.41,3.2,9.41,8.1s-4.51,9.64-9.41,9.64a8.78,8.78,0,0,1-8.88-8.87C48.44,5.45,52.48,1.44,57.18,1.59Z" transform="translate(0 0.14)"/><path class="cls-168" d="M57.18,1.6c4.9.15,9.41,3.2,9.41,8.1s-4.51,9.64-9.41,9.64a8.78,8.78,0,0,1-8.87-8.87C48.45,5.46,52.48,1.45,57.18,1.6Z" transform="translate(0 0.14)"/><path class="cls-169" d="M57.19,1.6c4.89.16,9.41,3.21,9.41,8.12s-4.51,9.63-9.41,9.63a8.79,8.79,0,0,1-8.88-8.87A8.93,8.93,0,0,1,57.19,1.6Z" transform="translate(0 0.14)"/><path class="cls-170" d="M57.19,1.61c4.9.16,9.41,3.22,9.41,8.12s-4.51,9.63-9.41,9.63a8.79,8.79,0,0,1-8.87-8.87C48.46,5.48,52.49,1.47,57.19,1.61Z" transform="translate(0 0.14)"/><path class="cls-171" d="M57.2,1.62c4.9.15,9.4,3.22,9.4,8.12s-4.5,9.63-9.4,9.63a8.8,8.8,0,0,1-8.88-8.88C48.46,5.49,52.49,1.47,57.2,1.62Z" transform="translate(0 0.14)"/><path class="cls-172" d="M57.2,1.63c4.9.15,9.4,3.23,9.4,8.13s-4.5,9.62-9.4,9.62a8.79,8.79,0,0,1-8.87-8.88C48.47,5.5,52.5,1.48,57.2,1.63Z" transform="translate(0 0.14)"/><path class="cls-173" d="M57.21,1.64c4.9.15,9.39,3.23,9.39,8.13s-4.49,9.61-9.39,9.61a8.79,8.79,0,0,1-8.88-8.87C48.47,5.51,52.5,1.49,57.21,1.64Z" transform="translate(0 0.14)"/><path class="cls-174" d="M57.21,1.65c4.9.14,9.39,3.23,9.39,8.14s-4.48,9.6-9.39,9.6a8.79,8.79,0,0,1-8.87-8.87C48.47,5.52,52.51,1.5,57.21,1.65Z" transform="translate(0 0.14)"/><path class="cls-175" d="M57.22,1.65c4.9.15,9.39,3.25,9.39,8.15s-4.49,9.6-9.39,9.6a8.79,8.79,0,0,1-8.87-8.87A8.93,8.93,0,0,1,57.22,1.65Z" transform="translate(0 0.14)"/><path class="cls-176" d="M57.23,1.66c4.89.15,9.38,3.25,9.38,8.15s-4.48,9.6-9.38,9.6a8.79,8.79,0,0,1-8.88-8.87A8.93,8.93,0,0,1,57.23,1.66Z" transform="translate(0 0.14)"/><path class="cls-177" d="M57.23,1.67c4.9.15,9.38,3.26,9.38,8.16s-4.48,9.59-9.38,9.59a8.79,8.79,0,0,1-8.87-8.88A8.92,8.92,0,0,1,57.23,1.67Z" transform="translate(0 0.14)"/><path class="cls-178" d="M57.24,1.68c4.9.14,9.37,3.26,9.37,8.16s-4.47,9.59-9.37,9.59a8.81,8.81,0,0,1-8.88-8.88A8.92,8.92,0,0,1,57.24,1.68Z" transform="translate(0 0.14)"/><path class="cls-179" d="M57.24,1.69c4.9.14,9.37,3.26,9.37,8.17s-4.47,9.57-9.37,9.57a8.79,8.79,0,0,1-8.87-8.87A8.92,8.92,0,0,1,57.24,1.69Z" transform="translate(0 0.14)"/><path class="cls-180" d="M57.25,1.7c4.9.14,9.36,3.27,9.36,8.17s-4.46,9.57-9.36,9.57a8.8,8.8,0,0,1-8.88-8.87A8.92,8.92,0,0,1,57.25,1.7Z" transform="translate(0 0.14)"/><path class="cls-181" d="M57.25,1.7c4.9.15,9.37,3.28,9.37,8.18s-4.47,9.57-9.37,9.57a8.79,8.79,0,0,1-8.87-8.87A8.93,8.93,0,0,1,57.25,1.7Z" transform="translate(0 0.14)"/><path class="cls-182" d="M57.26,1.71c4.9.14,9.36,3.29,9.36,8.19s-4.46,9.56-9.36,9.56a8.79,8.79,0,0,1-8.87-8.87A8.92,8.92,0,0,1,57.26,1.71Z" transform="translate(0 0.14)"/><path class="cls-183" d="M57.26,1.72c4.9.14,9.36,3.29,9.36,8.19s-4.45,9.56-9.36,9.56a8.8,8.8,0,0,1-8.87-8.88A8.92,8.92,0,0,1,57.26,1.72Z" transform="translate(0 0.14)"/><path class="cls-184" d="M57.27,1.73c4.9.14,9.35,3.29,9.35,8.2s-4.45,9.55-9.35,9.55A8.79,8.79,0,0,1,48.4,10.6,8.92,8.92,0,0,1,57.27,1.73Z" transform="translate(0 0.14)"/><path class="cls-185" d="M57.28,1.74c4.89.13,9.34,3.3,9.34,8.2s-4.44,9.54-9.34,9.54a8.8,8.8,0,0,1-8.88-8.87A8.93,8.93,0,0,1,57.28,1.74Z" transform="translate(0 0.14)"/><path class="cls-186" d="M57.28,1.75c4.9.13,9.34,3.3,9.34,8.2s-4.44,9.54-9.34,9.54a8.79,8.79,0,0,1-8.87-8.87A8.91,8.91,0,0,1,57.28,1.75Z" transform="translate(0 0.14)"/><path class="cls-187" d="M57.29,1.75c4.9.14,9.34,3.32,9.34,8.22s-4.44,9.53-9.34,9.53a8.8,8.8,0,0,1-8.88-8.87A8.93,8.93,0,0,1,57.29,1.75Z" transform="translate(0 0.14)"/><path class="cls-188" d="M57.29,1.76c4.9.14,9.34,3.32,9.34,8.22s-4.44,9.53-9.34,9.53a8.79,8.79,0,0,1-8.87-8.87A8.93,8.93,0,0,1,57.29,1.76Z" transform="translate(0 0.14)"/><path class="cls-189" d="M57.3,1.77c4.9.13,9.33,3.32,9.33,8.23s-4.43,9.52-9.33,9.52a8.82,8.82,0,0,1-8.88-8.88A8.93,8.93,0,0,1,57.3,1.77Z" transform="translate(0 0.14)"/><path class="cls-190" d="M57.3,1.78c4.9.13,9.33,3.33,9.33,8.23s-4.43,9.52-9.33,9.52a8.8,8.8,0,0,1-8.87-8.88A8.91,8.91,0,0,1,57.3,1.78Z" transform="translate(0 0.14)"/><path class="cls-191" d="M57.31,1.79c4.9.13,9.32,3.33,9.32,8.23s-4.42,9.52-9.32,9.52a8.8,8.8,0,0,1-8.87-8.88A8.9,8.9,0,0,1,57.31,1.79Z" transform="translate(0 0.14)"/><path class="cls-192" d="M57.31,1.8c4.9.12,9.32,3.34,9.32,8.24s-4.41,9.5-9.32,9.5a8.8,8.8,0,0,1-8.87-8.87A8.91,8.91,0,0,1,57.31,1.8Z" transform="translate(0 0.14)"/><path class="cls-193" d="M57.32,1.8c4.9.13,9.31,3.35,9.31,8.25s-4.41,9.5-9.31,9.5a8.79,8.79,0,0,1-8.87-8.87A8.91,8.91,0,0,1,57.32,1.8Z" transform="translate(0 0.14)"/><path class="cls-194" d="M57.33,1.81c4.89.13,9.31,3.35,9.31,8.25s-4.41,9.5-9.31,9.5a8.81,8.81,0,0,1-8.88-8.87A8.93,8.93,0,0,1,57.33,1.81Z" transform="translate(0 0.14)"/><path class="cls-195" d="M57.33,1.82c4.9.13,9.31,3.36,9.31,8.26s-4.41,9.49-9.31,9.49a8.81,8.81,0,0,1-8.87-8.88A8.91,8.91,0,0,1,57.33,1.82Z" transform="translate(0 0.14)"/><path class="cls-196" d="M57.34,1.83c4.9.12,9.3,3.36,9.3,8.26s-4.4,9.49-9.3,9.49a8.82,8.82,0,0,1-8.88-8.88A8.93,8.93,0,0,1,57.34,1.83Z" transform="translate(0 0.14)"/><path class="cls-197" d="M57.34,1.84c4.9.12,9.3,3.37,9.3,8.27s-4.4,9.48-9.3,9.48a8.81,8.81,0,0,1-8.87-8.88A8.91,8.91,0,0,1,57.34,1.84Z" transform="translate(0 0.14)"/><path class="cls-198" d="M57.35,1.85c4.9.12,9.29,3.37,9.29,8.27s-4.39,9.47-9.29,9.47a8.81,8.81,0,0,1-8.88-8.87A8.91,8.91,0,0,1,57.35,1.85Z" transform="translate(0 0.14)"/><path class="cls-199" d="M57.35,1.86c4.9.12,9.29,3.37,9.29,8.27s-4.38,9.47-9.29,9.47a8.8,8.8,0,0,1-8.87-8.87A8.91,8.91,0,0,1,57.35,1.86Z" transform="translate(0 0.14)"/><path class="cls-200" d="M57.36,1.86c4.9.12,9.29,3.39,9.29,8.29s-4.39,9.46-9.29,9.46a8.8,8.8,0,0,1-8.87-8.87A8.91,8.91,0,0,1,57.36,1.86Z" transform="translate(0 0.14)"/><path class="cls-201" d="M57.37,1.87c4.89.12,9.28,3.39,9.28,8.29s-4.38,9.46-9.28,9.46a8.81,8.81,0,0,1-8.88-8.87A8.92,8.92,0,0,1,57.37,1.87Z" transform="translate(0 0.14)"/><path class="cls-202" d="M57.37,1.88c4.9.12,9.28,3.4,9.28,8.3s-4.38,9.45-9.28,9.45a8.81,8.81,0,0,1-8.87-8.88A8.91,8.91,0,0,1,57.37,1.88Z" transform="translate(0 0.14)"/><path class="cls-203" d="M57.38,1.89c4.9.11,9.27,3.4,9.27,8.3s-4.37,9.45-9.27,9.45a8.82,8.82,0,0,1-8.88-8.88A8.91,8.91,0,0,1,57.38,1.89Z" transform="translate(0 0.14)"/><path class="cls-204" d="M57.38,1.9c4.9.11,9.27,3.4,9.27,8.3a9.71,9.71,0,0,1-9.27,9.44,8.81,8.81,0,0,1-8.87-8.87A8.91,8.91,0,0,1,57.38,1.9Z" transform="translate(0 0.14)"/><path class="cls-205" d="M57.39,1.91c4.9.11,9.26,3.41,9.26,8.31a9.7,9.7,0,0,1-9.26,9.43,8.81,8.81,0,0,1-8.88-8.87A8.91,8.91,0,0,1,57.39,1.91Z" transform="translate(0 0.14)"/><path class="cls-206" d="M57.39,1.91c4.9.12,9.27,3.42,9.27,8.32a9.71,9.71,0,0,1-9.27,9.43,8.81,8.81,0,0,1-8.87-8.87A8.92,8.92,0,0,1,57.39,1.91Z" transform="translate(0 0.14)"/><path class="cls-207" d="M57.4,1.92c4.9.11,9.26,3.43,9.26,8.33a9.69,9.69,0,0,1-9.26,9.42,8.81,8.81,0,0,1-8.87-8.87A8.91,8.91,0,0,1,57.4,1.92Z" transform="translate(0 0.14)"/><path class="cls-208" d="M57.4,1.93c4.9.11,9.26,3.43,9.26,8.33a9.69,9.69,0,0,1-9.26,9.42,8.81,8.81,0,0,1-8.87-8.88A8.92,8.92,0,0,1,57.4,1.93Z" transform="translate(0 0.14)"/><path class="cls-209" d="M57.41,1.94c4.9.11,9.25,3.43,9.25,8.33a9.68,9.68,0,0,1-9.25,9.42,8.88,8.88,0,0,1,0-17.75Z" transform="translate(0 0.14)"/><path class="cls-210" d="M57.42,2c4.89.11,9.24,3.44,9.24,8.34a9.66,9.66,0,0,1-9.24,9.4,8.81,8.81,0,0,1-8.88-8.87A8.91,8.91,0,0,1,57.42,2Z" transform="translate(0 0.14)"/><path class="cls-211" d="M57.42,2c4.9.1,9.24,3.44,9.24,8.34a9.66,9.66,0,0,1-9.24,9.4,8.81,8.81,0,0,1-8.87-8.87A8.9,8.9,0,0,1,57.42,2Z" transform="translate(0 0.14)"/><path class="cls-212" d="M57.43,2c4.9.11,9.24,3.46,9.24,8.36a9.65,9.65,0,0,1-9.24,9.39,8.82,8.82,0,0,1-8.88-8.87A8.92,8.92,0,0,1,57.43,2Z" transform="translate(0 0.14)"/><path class="cls-213" d="M57.43,2c4.9.11,9.24,3.46,9.24,8.36a9.65,9.65,0,0,1-9.24,9.39,8.81,8.81,0,0,1-8.87-8.87A8.91,8.91,0,0,1,57.43,2Z" transform="translate(0 0.14)"/><path class="cls-214" d="M57.44,2c4.9.1,9.23,3.46,9.23,8.36a9.63,9.63,0,0,1-9.23,9.39A8.88,8.88,0,1,1,57.44,2Z" transform="translate(0 0.14)"/><path class="cls-215" d="M57.44,2c4.9.1,9.23,3.47,9.23,8.37a9.63,9.63,0,0,1-9.23,9.38A8.88,8.88,0,0,1,57.44,2Z" transform="translate(0 0.14)"/><path class="cls-216" d="M57.45,2c4.9.1,9.22,3.47,9.22,8.37a9.61,9.61,0,0,1-9.22,9.37A8.87,8.87,0,0,1,57.45,2Z" transform="translate(0 0.14)"/><path class="cls-217" d="M57.45,2c4.9.1,9.22,3.48,9.22,8.38a9.6,9.6,0,0,1-9.22,9.36A8.87,8.87,0,0,1,57.45,2Z" transform="translate(0 0.14)"/><path class="cls-218" d="M57.46,2c4.9.1,9.22,3.49,9.22,8.39a9.6,9.6,0,0,1-9.22,9.36,8.81,8.81,0,0,1-8.87-8.87A8.91,8.91,0,0,1,57.46,2Z" transform="translate(0 0.14)"/><path class="cls-219" d="M57.47,2c4.9.1,9.21,3.49,9.21,8.39a9.59,9.59,0,0,1-9.21,9.36,8.83,8.83,0,0,1-8.88-8.87A8.92,8.92,0,0,1,57.47,2Z" transform="translate(0 0.14)"/><path class="cls-220" d="M57.47,2c4.9.1,9.21,3.5,9.21,8.4a9.58,9.58,0,0,1-9.21,9.35A8.82,8.82,0,0,1,48.6,10.9,8.91,8.91,0,0,1,57.47,2Z" transform="translate(0 0.14)"/><path class="cls-221" d="M57.48,2c4.9.1,9.2,3.5,9.2,8.4a9.58,9.58,0,0,1-9.2,9.35A8.88,8.88,0,1,1,57.48,2Z" transform="translate(0 0.14)"/><path class="cls-222" d="M57.48,2.05c4.9.09,9.2,3.51,9.2,8.41a9.57,9.57,0,0,1-9.2,9.34,8.88,8.88,0,0,1,0-17.75Z" transform="translate(0 0.14)"/><path class="cls-223" d="M57.49,2.06c4.9.09,9.19,3.51,9.19,8.41a9.55,9.55,0,0,1-9.19,9.33,8.87,8.87,0,1,1,0-17.74Z" transform="translate(0 0.14)"/><path class="cls-224" d="M57.49,2.06c4.9.1,9.2,3.52,9.2,8.42a9.55,9.55,0,0,1-9.2,9.33,8.82,8.82,0,0,1-8.87-8.87A8.91,8.91,0,0,1,57.49,2.06Z" transform="translate(0 0.14)"/><path class="cls-225" d="M57.5,2.07c4.9.09,9.19,3.53,9.19,8.43a9.54,9.54,0,0,1-9.19,9.32A8.82,8.82,0,0,1,48.63,11,8.91,8.91,0,0,1,57.5,2.07Z" transform="translate(0 0.14)"/><path class="cls-226" d="M57.5,2.08c4.9.09,9.19,3.53,9.19,8.43a9.53,9.53,0,0,1-9.19,9.32,8.88,8.88,0,0,1,0-17.75Z" transform="translate(0 0.14)"/><path class="cls-227" d="M57.51,2.09c4.9.09,9.18,3.54,9.18,8.44a9.52,9.52,0,0,1-9.18,9.31,8.88,8.88,0,0,1,0-17.75Z" transform="translate(0 0.14)"/><path class="cls-228" d="M57.52,2.1c4.9.09,9.17,3.54,9.17,8.44a9.51,9.51,0,0,1-9.17,9.31,8.88,8.88,0,1,1,0-17.75Z" transform="translate(0 0.14)"/><path class="cls-229" d="M57.52,2.11c4.9.08,9.17,3.54,9.17,8.44a9.5,9.5,0,0,1-9.17,9.3,8.87,8.87,0,0,1,0-17.74Z" transform="translate(0 0.14)"/><path class="cls-230" d="M57.53,2.11c4.9.09,9.17,3.56,9.17,8.46a9.5,9.5,0,0,1-9.17,9.29,8.88,8.88,0,1,1,0-17.75Z" transform="translate(0 0.14)"/><path class="cls-231" d="M57.53,2.12c4.9.09,9.17,3.56,9.17,8.46a9.5,9.5,0,0,1-9.17,9.29,8.88,8.88,0,0,1,0-17.75Z" transform="translate(0 0.14)"/><path class="cls-232" d="M57.54,2.13c4.9.08,9.16,3.57,9.16,8.47a9.48,9.48,0,0,1-9.16,9.28,8.88,8.88,0,1,1,0-17.75Z" transform="translate(0 0.14)"/><path class="cls-233" d="M57.54,2.14c4.9.08,9.16,3.57,9.16,8.47a9.47,9.47,0,0,1-9.16,9.28,8.88,8.88,0,0,1,0-17.75Z" transform="translate(0 0.14)"/><path class="cls-234" d="M57.55,2.15c4.9.08,9.15,3.57,9.15,8.47a9.46,9.46,0,0,1-9.15,9.28,8.88,8.88,0,0,1,0-17.75Z" transform="translate(0 0.14)"/><path class="cls-235" d="M57.56,2.16c4.89.08,9.14,3.58,9.14,8.48a9.44,9.44,0,0,1-9.14,9.26,8.87,8.87,0,1,1,0-17.74Z" transform="translate(0 0.14)"/><path class="cls-236" d="M57.56,2.17c4.9.07,9.15,3.58,9.15,8.48a9.45,9.45,0,0,1-9.15,9.26,8.87,8.87,0,0,1,0-17.74Z" transform="translate(0 0.14)"/><path class="cls-237" d="M57.57,2.17c4.9.08,9.14,3.6,9.14,8.5a9.43,9.43,0,0,1-9.14,9.25,8.88,8.88,0,1,1,0-17.75Z" transform="translate(0 0.14)"/><path class="cls-238" d="M57.57,2.18c4.9.08,9.14,3.6,9.14,8.5a9.43,9.43,0,0,1-9.14,9.25,8.88,8.88,0,0,1,0-17.75Z" transform="translate(0 0.14)"/><path class="cls-239" d="M57.58,2.19c4.9.08,9.13,3.6,9.13,8.5a9.42,9.42,0,0,1-9.13,9.25,8.88,8.88,0,1,1,0-17.75Z" transform="translate(0 0.14)"/><path class="cls-240" d="M57.58,2.2c4.9.07,9.13,3.61,9.13,8.51A9.42,9.42,0,0,1,57.58,20a8.88,8.88,0,0,1,0-17.75Z" transform="translate(0 0.14)"/><path class="cls-241" d="M57.59,2.21c4.9.07,9.12,3.61,9.12,8.51A9.4,9.4,0,0,1,57.59,20a8.87,8.87,0,0,1,0-17.74Z" transform="translate(0 0.14)"/><path class="cls-242" d="M57.59,2.22c4.9.07,9.13,3.62,9.13,8.52A9.39,9.39,0,0,1,57.59,20a8.87,8.87,0,0,1,0-17.74Z" transform="translate(0 0.14)"/><path class="cls-243" d="M57.6,2.22c4.9.07,9.12,3.63,9.12,8.53A9.39,9.39,0,0,1,57.6,20a8.88,8.88,0,0,1,0-17.75Z" transform="translate(0 0.14)"/><path class="cls-244" d="M57.61,2.23c4.9.07,9.11,3.63,9.11,8.53A9.37,9.37,0,0,1,57.61,20a8.88,8.88,0,1,1,0-17.75Z" transform="translate(0 0.14)"/><path class="cls-245" d="M57.61,2.24c4.9.07,9.11,3.64,9.11,8.54A9.37,9.37,0,0,1,57.61,20a8.88,8.88,0,0,1,0-17.75Z" transform="translate(0 0.14)"/><path class="cls-246" d="M57.62,2.25c4.9.07,9.1,3.64,9.1,8.54A9.36,9.36,0,0,1,57.62,20a8.88,8.88,0,1,1,0-17.75Z" transform="translate(0 0.14)"/><path class="cls-247" d="M57.62,2.26c4.9.06,9.1,3.65,9.1,8.55A9.35,9.35,0,0,1,57.62,20a8.87,8.87,0,1,1,0-17.74Z" transform="translate(0 0.14)"/><path class="cls-248" d="M57.63,2.27c4.9.06,9.1,3.65,9.1,8.55A9.35,9.35,0,0,1,57.63,20a8.87,8.87,0,1,1,0-17.74Z" transform="translate(0 0.14)"/><path class="cls-249" d="M57.63,2.27c4.9.07,9.1,3.66,9.1,8.56A9.34,9.34,0,0,1,57.63,20a8.88,8.88,0,0,1,0-17.75Z" transform="translate(0 0.14)"/><path class="cls-250" d="M57.64,2.28c4.9.07,9.09,3.67,9.09,8.57A9.33,9.33,0,0,1,57.64,20a8.88,8.88,0,0,1,0-17.75Z" transform="translate(0 0.14)"/><path class="cls-251" d="M57.64,2.29c4.9.06,9.09,3.67,9.09,8.57A9.32,9.32,0,0,1,57.64,20a8.88,8.88,0,0,1,0-17.75Z" transform="translate(0 0.14)"/><path class="cls-252" d="M57.65,2.3c4.9.06,9.08,3.68,9.08,8.58a9.31,9.31,0,0,1-9.08,9.17,8.88,8.88,0,0,1,0-17.75Z" transform="translate(0 0.14)"/><path class="cls-253" d="M57.66,2.31c4.9.06,9.07,3.68,9.07,8.58a9.29,9.29,0,0,1-9.07,9.16,8.87,8.87,0,1,1,0-17.74Z" transform="translate(0 0.14)"/><path class="cls-254" d="M57.66,2.32c4.9.05,9.08,3.68,9.08,8.58a9.3,9.3,0,0,1-9.08,9.16,8.87,8.87,0,1,1,0-17.74Z" transform="translate(0 0.14)"/><path class="cls-255" d="M57.67,2.32c4.9.06,9.07,3.7,9.07,8.6a9.28,9.28,0,0,1-9.07,9.15,8.88,8.88,0,1,1,0-17.75Z" transform="translate(0 0.14)"/><path class="cls-256" d="M57.67,2.33c4.9.06,9.07,3.7,9.07,8.6a9.28,9.28,0,0,1-9.07,9.15,8.88,8.88,0,0,1,0-17.75Z" transform="translate(0 0.14)"/><path class="cls-257" d="M57.68,2.34c4.9.06,9.06,3.71,9.06,8.61a9.27,9.27,0,0,1-9.06,9.14,8.88,8.88,0,1,1,0-17.75Z" transform="translate(0 0.14)"/><path class="cls-258" d="M57.68,2.35c4.9,0,9.06,3.71,9.06,8.61a9.27,9.27,0,0,1-9.06,9.14,8.88,8.88,0,0,1,0-17.75Z" transform="translate(0 0.14)"/><path class="cls-259" d="M57.69,2.36c4.9.05,9,3.71,9,8.61a9.26,9.26,0,0,1-9,9.14,8.88,8.88,0,0,1,0-17.75Z" transform="translate(0 0.14)"/><path class="cls-260" d="M57.69,2.37c4.91,0,9.06,3.72,9.06,8.62a9.24,9.24,0,0,1-9.06,9.12,8.87,8.87,0,1,1,0-17.74Z" transform="translate(0 0.14)"/><path class="cls-261" d="M57.7,2.37a8.86,8.86,0,0,1,9,8.63,9.24,9.24,0,0,1-9,9.12,8.88,8.88,0,0,1,0-17.75Z" transform="translate(0 0.14)"/><path class="cls-262" d="M57.71,2.38a8.85,8.85,0,0,1,9,8.64,9.22,9.22,0,0,1-9,9.11,8.88,8.88,0,1,1,0-17.75Z" transform="translate(0 0.14)"/><path class="cls-263" d="M57.71,2.39a8.85,8.85,0,0,1,9,8.64,9.22,9.22,0,0,1-9,9.11,8.88,8.88,0,0,1,0-17.75Z" transform="translate(0 0.14)"/><path class="cls-264" d="M57.72,2.4a8.85,8.85,0,0,1,9,8.64,9.21,9.21,0,0,1-9,9.11,8.88,8.88,0,1,1,0-17.75Z" transform="translate(0 0.14)"/><path class="cls-265" d="M57.72,2.41a8.85,8.85,0,0,1,9,8.65,9.21,9.21,0,0,1-9,9.1,8.88,8.88,0,0,1,0-17.75Z" transform="translate(0 0.14)"/><path class="cls-266" d="M57.73,2.42a8.85,8.85,0,0,1,9,8.65,9.2,9.2,0,0,1-9,9.09,8.87,8.87,0,1,1,0-17.74Z" transform="translate(0 0.14)"/><path class="cls-267" d="M57.73,2.43a8.86,8.86,0,0,1,9,8.66,9.18,9.18,0,0,1-9,9.08,8.87,8.87,0,1,1,0-17.74Z" transform="translate(0 0.14)"/><path class="cls-268" d="M57.74,2.43a8.86,8.86,0,0,1,9,8.67,9.18,9.18,0,0,1-9,9.08,8.88,8.88,0,0,1,0-17.75Z" transform="translate(0 0.14)"/><path class="cls-269" d="M57.75,2.44a8.85,8.85,0,0,1,9,8.67,9.17,9.17,0,0,1-9,9.08,8.88,8.88,0,1,1,0-17.75Z" transform="translate(0 0.14)"/><path class="cls-270" d="M57.75,2.45a8.86,8.86,0,0,1,9,8.68,9.16,9.16,0,0,1-9,9.07,8.88,8.88,0,0,1,0-17.75Z" transform="translate(0 0.14)"/><path class="cls-271" d="M57.76,2.46a8.85,8.85,0,0,1,9,8.68,9.15,9.15,0,0,1-9,9.07,8.88,8.88,0,1,1,0-17.75Z" transform="translate(0 0.14)"/><path class="cls-272" d="M57.76,2.47a8.86,8.86,0,0,1,9,8.69,9.14,9.14,0,0,1-9,9.05,8.87,8.87,0,1,1,0-17.74Z" transform="translate(0 0.14)"/><path class="cls-273" d="M57.77,2.48a8.85,8.85,0,0,1,9,8.69,9.14,9.14,0,0,1-9,9,8.87,8.87,0,1,1,0-17.74Z" transform="translate(0 0.14)"/><path class="cls-274" d="M57.77,2.48a8.86,8.86,0,0,1,9,8.7,9.14,9.14,0,0,1-9,9.05,8.88,8.88,0,0,1,0-17.75Z" transform="translate(0 0.14)"/><path class="cls-275" d="M57.78,2.49a8.86,8.86,0,0,1,9,8.71,9.12,9.12,0,0,1-9,9,8.88,8.88,0,0,1,0-17.75Z" transform="translate(0 0.14)"/><path class="cls-276" d="M57.78,2.5a8.86,8.86,0,0,1,9,8.71,9.11,9.11,0,0,1-9,9,8.88,8.88,0,0,1,0-17.75Z" transform="translate(0 0.14)"/><path class="cls-277" d="M57.79,2.51a8.85,8.85,0,0,1,9,8.72,9.1,9.1,0,0,1-9,9,8.88,8.88,0,0,1,0-17.75Z" transform="translate(0 0.14)"/><path class="cls-278" d="M57.8,2.52a8.86,8.86,0,0,1,9,8.72,9.09,9.09,0,0,1-9,9,8.87,8.87,0,1,1,0-17.74Z" transform="translate(0 0.14)"/><path class="cls-279" d="M57.8,2.53a8.86,8.86,0,0,1,9,8.72,9.09,9.09,0,0,1-9,9,8.87,8.87,0,1,1,0-17.74Z" transform="translate(0 0.14)"/><path class="cls-280" d="M57.81,2.53a8.86,8.86,0,0,1,9,8.74,9.07,9.07,0,0,1-9,9,8.88,8.88,0,1,1,0-17.75Z" transform="translate(0 0.14)"/><path class="cls-281" d="M57.81,2.54a8.86,8.86,0,0,1,9,8.74,9.07,9.07,0,0,1-9,9,8.88,8.88,0,0,1,0-17.75Z" transform="translate(0 0.14)"/><path class="cls-282" d="M57.82,2.55a8.86,8.86,0,0,1,9,8.75,9.06,9.06,0,0,1-9,9,8.88,8.88,0,1,1,0-17.75Z" transform="translate(0 0.14)"/><path class="cls-283" d="M57.82,2.56a8.86,8.86,0,0,1,9,8.75,9.06,9.06,0,0,1-9,9,8.88,8.88,0,0,1,0-17.75Z" transform="translate(0 0.14)"/><path class="cls-284" d="M57.83,2.57a8.86,8.86,0,0,1,9,8.75,9,9,0,0,1-9,9,8.87,8.87,0,1,1,0-17.74Z" transform="translate(0 0.14)"/><path class="cls-285" d="M57.83,2.58a8.86,8.86,0,0,1,9,8.76,9,9,0,0,1-9,9,8.87,8.87,0,1,1,0-17.74Z" transform="translate(0 0.14)"/><path class="cls-286" d="M57.84,2.58a8.87,8.87,0,0,1,9,8.77,9,9,0,0,1-9,9,8.88,8.88,0,0,1,0-17.75Z" transform="translate(0 0.14)"/><path class="cls-287" d="M57.85,2.59a8.86,8.86,0,0,1,8.94,8.78,9,9,0,0,1-8.94,9,8.88,8.88,0,1,1,0-17.75Z" transform="translate(0 0.14)"/><path class="cls-288" d="M57.85,2.6a8.87,8.87,0,0,1,8.94,8.78,9,9,0,0,1-8.94,9,8.88,8.88,0,0,1,0-17.75Z" transform="translate(0 0.14)"/><path class="cls-289" d="M57.86,2.61a8.86,8.86,0,0,1,8.93,8.78,9,9,0,0,1-8.93,9,8.88,8.88,0,1,1,0-17.75Z" transform="translate(0 0.14)"/><path class="cls-290" d="M57.86,2.62a8.87,8.87,0,0,1,8.94,8.79,9,9,0,0,1-8.94,9,8.88,8.88,0,0,1,0-17.75Z" transform="translate(0 0.14)"/><path class="cls-291" d="M57.87,2.63a8.86,8.86,0,0,1,8.93,8.79,9,9,0,0,1-8.93,9,8.87,8.87,0,1,1,0-17.74Z" transform="translate(0 0.14)"/><path class="cls-292" d="M57.87,2.63a8.88,8.88,0,0,1,8.93,8.81,9,9,0,0,1-8.93,8.94,8.88,8.88,0,0,1,0-17.75Z" transform="translate(0 0.14)"/><path class="cls-293" d="M57.88,2.64a8.87,8.87,0,0,1,8.92,8.81,9,9,0,0,1-8.92,8.94,8.88,8.88,0,0,1,0-17.75Z" transform="translate(0 0.14)"/><path class="cls-294" d="M57.89,2.65a8.86,8.86,0,0,1,8.91,8.81,9,9,0,0,1-8.91,8.94,8.88,8.88,0,1,1,0-17.75Z" transform="translate(0 0.14)"/><path class="cls-295" d="M57.89,2.66A8.88,8.88,0,1,1,49,11.53,8.87,8.87,0,0,1,57.89,2.66Z" transform="translate(0 0.14)"/><path class="cls-296" d="M57.9,2.67A8.88,8.88,0,1,1,49,11.54,8.86,8.86,0,0,1,57.9,2.67Z" transform="translate(0 0.14)"/><path class="cls-297" d="M57.9,2.68A8.87,8.87,0,1,1,49,11.55,8.87,8.87,0,0,1,57.9,2.68Z" transform="translate(0 0.14)"/><path class="cls-298" d="M57.91,2.69A8.87,8.87,0,1,1,49,11.56,8.86,8.86,0,0,1,57.91,2.69Z" transform="translate(0 0.14)"/><path class="cls-299" d="M57.91,2.69A8.88,8.88,0,1,1,49,11.57,8.87,8.87,0,0,1,57.91,2.69Z" transform="translate(0 0.14)"/><path class="cls-300" d="M57.92,2.7a8.88,8.88,0,1,1-8.87,8.88A8.87,8.87,0,0,1,57.92,2.7Z" transform="translate(0 0.14)"/><path class="cls-301" d="M57.92,2.71a8.88,8.88,0,1,1-8.87,8.87A8.86,8.86,0,0,1,57.92,2.71Z" transform="translate(0 0.14)"/><path class="cls-302" d="M57.93,2.72a8.88,8.88,0,1,1-8.87,8.87A8.86,8.86,0,0,1,57.93,2.72Z" transform="translate(0 0.14)"/><path class="cls-303" d="M57.94,2.73a8.87,8.87,0,1,1-8.88,8.87A8.87,8.87,0,0,1,57.94,2.73Z" transform="translate(0 0.14)"/><path class="cls-304" d="M57.94,2.74a8.87,8.87,0,1,1-8.87,8.87A8.87,8.87,0,0,1,57.94,2.74Z" transform="translate(0 0.14)"/><path class="cls-305" d="M66.82,11.62A8.88,8.88,0,1,1,58,2.74,8.87,8.87,0,0,1,66.82,11.62Z" transform="translate(0 0.14)"/></g></g><path class="cls-3" d="M0,31A5.09,5.09,0,0,1,5.2,25.8a4.88,4.88,0,0,1,4.56,2.45l-1.36.84a3.22,3.22,0,0,0-3.2-1.86A3.65,3.65,0,0,0,1.5,31,3.47,3.47,0,0,0,5,34.71a3.14,3.14,0,0,0,3.4-2.66H4.9V30.63H9.83V36H8.37V34.43l.06-.38a3.45,3.45,0,0,1-3.51,2.07A4.86,4.86,0,0,1,0,31Z" transform="translate(0 0.14)"/><path class="cls-3" d="M11.61,25.14h1.5V36h-1.5Z" transform="translate(0 0.14)"/><path class="cls-3" d="M14.54,32.27a3.87,3.87,0,1,1,3.87,3.87A3.85,3.85,0,0,1,14.54,32.27Zm6.27,0a2.39,2.39,0,1,0-2.4,2.48A2.43,2.43,0,0,0,20.81,32.27Z" transform="translate(0 0.14)"/><path class="cls-3" d="M25.17,34.91V36H23.71V25.11h1.48v4.52a3.19,3.19,0,0,1,2.54-1.23,3.87,3.87,0,0,1,0,7.74A3.23,3.23,0,0,1,25.17,34.91ZM30,32.26a2.44,2.44,0,1,0-4.87,0,2.44,2.44,0,1,0,4.87,0Z" transform="translate(0 0.14)"/><path class="cls-3" d="M32.52,34.05c0-1.48.93-2.15,2.95-2.4,1.45-.18,1.94-.28,1.94-.81s-.4-1.19-1.54-1.19A1.77,1.77,0,0,0,34,31.09l-1.43-.6a3.3,3.3,0,0,1,3.28-2.09c1.9,0,3.06,1,3.06,2.81V36H37.47V34.84A2.51,2.51,0,0,1,35,36.14C33.53,36.14,32.52,35.28,32.52,34.05Zm4.36.2a1.77,1.77,0,0,0,.59-1.31V32.3c0,.29-.51.35-1.64.49S34,33.26,34,33.94s.48.9,1.2.9A2.39,2.39,0,0,0,36.88,34.25Z" transform="translate(0 0.14)"/><path class="cls-3" d="M40.54,25.14H42V36h-1.5Z" transform="translate(0 0.14)"/><path class="cls-3" d="M47.22,25.94h1.64l5,7.62V25.94h1.46V36H53.83l-5.14-7.77V36H47.22Z" transform="translate(0 0.14)"/><path class="cls-3" d="M56.77,32.3a3.83,3.83,0,0,1,3.87-3.9,3.7,3.7,0,0,1,3.82,3.8v.62H58.21a2.58,2.58,0,0,0,4.69.8l1.23.73a3.86,3.86,0,0,1-3.4,1.79A3.77,3.77,0,0,1,56.77,32.3Zm1.49-.75H63a2.18,2.18,0,0,0-2.32-1.84A2.43,2.43,0,0,0,58.26,31.55Z" transform="translate(0 0.14)"/><path class="cls-3" d="M66.54,33.56V29.89H65.06V28.55h1.48V26.94L68,26v2.56h2.08v1.34H68v3.66c0,.81.41,1.17,1,1.17a2.07,2.07,0,0,0,1.11-.3v1.39a2.14,2.14,0,0,1-1.22.31C67.4,36.12,66.54,35.39,66.54,33.56Z" transform="translate(0 0.14)"/><path class="cls-3" d="M70.93,28.55h1.53L74.19,34l2-5.41h1.44l2,5.41,1.79-5.41H83L80.39,36H79l-2-5.46L74.85,36H73.39Z" transform="translate(0 0.14)"/><path class="cls-3" d="M83.53,32.27a3.87,3.87,0,1,1,3.87,3.87A3.85,3.85,0,0,1,83.53,32.27Zm6.26,0a2.39,2.39,0,1,0-2.39,2.48A2.42,2.42,0,0,0,89.79,32.27Z" transform="translate(0 0.14)"/><path class="cls-3" d="M92.69,28.55h1.46v1.27a2.13,2.13,0,0,1,2.12-1.27h.62v1.52H96c-1.17,0-1.85.49-1.85,1.91v4H92.69Z" transform="translate(0 0.14)"/><path class="cls-3" d="M101.1,32.61l-1.34,1.45V36H98.29V25.14h1.47v7.21l3.47-3.8h1.82l-2.88,3.13,3,4.31h-1.75Z" transform="translate(0 0.14)"/></g></g></g></svg>